<svg width="24" height="24" viewBox="0 0 24 24" fill="none" xmlns="http://www.w3.org/2000/svg">
  <path d="M3.75001 12C3.74979 10.5518 4.13082 9.12893 4.85482 7.87459C5.57882 6.62026 6.62026 5.57861 7.87445 4.85437C9.12865 4.13013 10.5514 3.74881 11.9997 3.74876C13.448 3.7487 14.8708 4.1299 16.125 4.85405C16.2972 4.95193 16.5011 4.97775 16.6922 4.92586C16.8833 4.87397 17.0462 4.74858 17.1452 4.57707C17.2442 4.40555 17.2714 4.20183 17.2208 4.01036C17.1702 3.81888 17.0459 3.65521 16.875 3.55505C15.0163 2.48192 12.8554 2.05208 10.7275 2.33219C8.59964 2.61229 6.62362 3.5867 5.10594 5.10428C3.58826 6.62186 2.61373 8.59782 2.33349 10.7257C2.05324 12.8536 2.48294 15.0145 3.55595 16.8733C4.62896 18.732 6.28531 20.1848 8.26813 21.0063C10.2509 21.8278 12.4494 21.9721 14.5226 21.4168C16.5958 20.8615 18.4278 19.6377 19.7345 17.9351C21.0413 16.2325 21.7497 14.1463 21.75 12C21.75 11.8011 21.671 11.6104 21.5303 11.4697C21.3897 11.3291 21.1989 11.25 21 11.25C20.8011 11.25 20.6103 11.3291 20.4697 11.4697C20.329 11.6104 20.25 11.8011 20.25 12C20.25 14.1881 19.3808 16.2865 17.8336 17.8337C16.2865 19.3809 14.188 20.25 12 20.25C9.81198 20.25 7.71356 19.3809 6.16638 17.8337C4.61921 16.2865 3.75001 14.1881 3.75001 12Z" fill="white" />
  <path d="M23.031 5.03109C23.1008 4.96136 23.1561 4.87858 23.1938 4.78747C23.2316 4.69636 23.251 4.59871 23.251 4.50009C23.251 4.40148 23.2316 4.30383 23.1938 4.21272C23.1561 4.12161 23.1008 4.03882 23.031 3.96909C22.9613 3.89936 22.8785 3.84405 22.7874 3.80631C22.6963 3.76857 22.5986 3.74915 22.5 3.74915C22.4014 3.74915 22.3038 3.76857 22.2127 3.80631C22.1215 3.84405 22.0388 3.89936 21.969 3.96909L12 13.9396L8.03103 9.96909C7.9613 9.89936 7.87852 9.84405 7.78741 9.80631C7.6963 9.76857 7.59865 9.74915 7.50003 9.74915C7.40142 9.74915 7.30377 9.76857 7.21266 9.80631C7.12155 9.84405 7.03876 9.89936 6.96903 9.96909C6.8993 10.0388 6.84399 10.1216 6.80625 10.2127C6.76851 10.3038 6.74908 10.4015 6.74908 10.5001C6.74908 10.5987 6.76851 10.6964 6.80625 10.7875C6.84399 10.8786 6.8993 10.9614 6.96903 11.0311L11.469 15.5311C11.5387 15.6009 11.6215 15.6564 11.7126 15.6942C11.8037 15.732 11.9014 15.7514 12 15.7514C12.0987 15.7514 12.1964 15.732 12.2875 15.6942C12.3786 15.6564 12.4614 15.6009 12.531 15.5311L23.031 5.03109Z" fill="white" />
</svg>