<svg viewBox="30.056 -1.005 45.065 40.386" xmlns="http://www.w3.org/2000/svg" stroke-width="5">
  <path stroke="orange" fill="transparent" d="M 50.218 6.306 C 46.503 6.322 43.502 9.341 43.508 13.056 C 43.502 16.77 46.503 19.789 50.218 19.806 L 52.508 19.806" transform="matrix(0.9999999999999999, 0, 0, 0.9999999999999999, 0, 0)"/>
  <path stroke="orange" fill="transparent" d="M 52.508 19.806 L 54.798 19.806 C 58.512 19.822 61.513 22.841 61.508 26.556 C 61.513 30.278 58.5 33.3 54.778 33.306" transform="matrix(0.9999999999999999, 0, 0, 0.9999999999999999, 0, 0)"/>
  <path stroke="yellow" d="M 60.888 8.586 C 59.028 7.026 57.018 6.306 52.508 6.306 L 50.218 6.306" transform="matrix(0.9999999999999999, 0, 0, 0.9999999999999999, 0, 0)"/>
  <path stroke="yellow" d="M 44.128 31.026 C 45.988 32.586 47.998 33.306 52.508 33.306 L 54.798 33.306" transform="matrix(0.9999999999999999, 0, 0, 0.9999999999999999, 0, 0)"/>
</svg>
