<svg viewBox="30.056 -1.005 45.065 40.386" xmlns="http://www.w3.org/2000/svg">
  <path stroke-width="1.5" fill="transparent" stroke="orange" d="M 52.588 -1.005 C 65.021 -1.005 75.121 8.27 75.121 19.688 C 75.121 31.106 65.021 40.381 52.588 40.381 C 40.156 40.381 30.056 31.106 30.056 19.688 C 30.056 15.963 31.143 12.311 33.21 9.147 L 34.032 7.881 L 34.722 8.441 L 44.927 17.813 C 44.734 18.422 44.636 19.053 44.636 19.688 C 44.636 23.705 48.214 26.991 52.588 26.991 C 56.962 26.991 60.541 23.705 60.541 19.688 C 60.541 15.671 56.962 12.385 52.588 12.385 C 52.138 12.385 51.687 12.433 51.263 12.506 L 51.263 -1.005 L 52.588 -1.005 Z M 37.622 4.22 L 49.911 15.508 C 50.701 15.081 51.608 14.819 52.588 14.819 C 55.512 14.819 57.89 17.002 57.89 19.688 C 57.89 22.372 55.512 24.557 52.588 24.557 C 49.665 24.557 47.287 22.372 47.287 19.688 C 47.287 18.786 47.573 17.954 48.037 17.229 L 35.745 5.943 L 37.622 4.22 Z" style="" transform="matrix(0.9999999999999999, 0, 0, 0.9999999999999999, 0, 0)"/>
</svg>
